<svg xmlns="http://www.w3.org/2000/svg" data-name="Layer 1" viewBox="0 0 64 80" x="0px" y="0px"><title>x</title><path d="M57.555,47.641a7.814,7.814,0,0,0,.429-2.956,6.287,6.287,0,0,0-2.352-4.766A6.848,6.848,0,0,0,50.76,38.5a6.416,6.416,0,0,0-2.9,1.013,10.1,10.1,0,0,0-18.109,8.037,8.01,8.01,0,0,0,1.924,15.787H55.262a8.013,8.013,0,0,0,2.293-15.692ZM55.262,60.333H31.677a5.016,5.016,0,0,1,0-10.031c.013,0,.025,0,.037,0s.017,0,.026,0a1.522,1.522,0,0,0,.6-.126,1.5,1.5,0,0,0,.768-1.978,7.1,7.1,0,0,1,12.994-5.725c.01.022.024.039.034.059a1.52,1.52,0,0,0,.08.142c.025.039.052.077.08.113a1.348,1.348,0,0,0,.1.114c.035.037.071.071.109.1.019.016.034.035.054.05s.042.025.063.04c.04.027.081.053.123.076a1.277,1.277,0,0,0,.138.07c.041.017.081.032.123.046s.1.031.153.043.086.015.13.021.1.011.152.012a1.354,1.354,0,0,0,.142,0,1.412,1.412,0,0,0,.144-.017,1.449,1.449,0,0,0,.142-.032,1.486,1.486,0,0,0,.143-.046c.023-.009.046-.012.069-.022s.042-.025.064-.036c.045-.023.088-.047.131-.074s.085-.056.124-.087.07-.059.1-.09a1.63,1.63,0,0,0,.114-.121c.014-.016.031-.029.045-.047a3.4,3.4,0,0,1,2.384-1.306,3.874,3.874,0,0,1,2.746.811,3.411,3.411,0,0,1,1.192,2.548,4.707,4.707,0,0,1-.913,3.045c-.01.013-.016.028-.026.041-.03.042-.056.087-.082.132s-.048.082-.068.124-.034.089-.05.135-.033.1-.045.145-.015.086-.021.13a1.538,1.538,0,0,0-.017.165c0,.016,0,.03,0,.045,0,.03.007.058.008.087,0,.054.008.108.017.161a1.269,1.269,0,0,0,.03.136c.013.048.027.1.045.144s.036.086.057.128a1.426,1.426,0,0,0,.072.133c.024.039.051.077.079.114s.062.078.1.116.072.07.11.1.043.045.068.064c.009.007.02.009.029.015a1.464,1.464,0,0,0,.38.2c.027.01.053.017.08.025a1.467,1.467,0,0,0,.426.069h0a5.016,5.016,0,0,1,0,10.031Z"/><path d="M25.948,46.521c-.026-.013-.05-.028-.075-.042s-.076-.045-.117-.063a1.708,1.708,0,0,0-.213-.069c-.023-.006-.044-.016-.067-.021a17.123,17.123,0,0,1-5.765-2.392,1.447,1.447,0,0,0-.235-.12c-.009,0-.016-.01-.025-.014a1.5,1.5,0,0,0-.537-.1l-.028,0a1.517,1.517,0,0,0-.537.1.258.258,0,0,1-.026.008,1.493,1.493,0,0,0-.487.324l0,0,0,0-.008.008-3.509,3.507a1.871,1.871,0,0,1-2.637,0l-.969-.97a1.869,1.869,0,0,1,0-2.633l3.513-3.513.006-.007,0,0,0,0a1.483,1.483,0,0,0,.322-.486c0-.009,0-.018.009-.028a1.489,1.489,0,0,0,.1-.535c0-.01,0-.018,0-.028a1.484,1.484,0,0,0-.1-.538l-.01-.021a1.5,1.5,0,0,0-.123-.239,17.1,17.1,0,0,1-2.392-5.764c0-.022-.014-.041-.02-.063a1.509,1.509,0,0,0-.07-.219c-.016-.035-.037-.066-.055-.1a1.3,1.3,0,0,0-.087-.154c-.023-.034-.051-.062-.076-.093a1.523,1.523,0,0,0-.111-.13c-.024-.023-.051-.041-.077-.063a1.6,1.6,0,0,0-.15-.119c-.021-.013-.045-.023-.066-.036a1.482,1.482,0,0,0-.19-.1c-.023-.009-.047-.014-.071-.022a1.413,1.413,0,0,0-.207-.061,1.169,1.169,0,0,0-.119-.012,1.541,1.541,0,0,0-.168-.017H5.59a1.868,1.868,0,0,1-1.866-1.867V28.473A1.868,1.868,0,0,1,5.59,26.606h4.989a1.483,1.483,0,0,0,.444-.077c.025-.008.049-.014.073-.023a1.464,1.464,0,0,0,.377-.21c.022-.016.041-.033.062-.051a1.524,1.524,0,0,0,.293-.328c.01-.016.017-.033.026-.049a1.474,1.474,0,0,0,.178-.44l0-.008a17.118,17.118,0,0,1,2.392-5.764,1.574,1.574,0,0,0,.122-.238l.011-.022a1.48,1.48,0,0,0,.1-.538c0-.009,0-.018,0-.028a1.479,1.479,0,0,0-.1-.534.246.246,0,0,0-.009-.029,1.488,1.488,0,0,0-.321-.484l0,0,0-.005,0,0-3.51-3.51a1.873,1.873,0,0,1,0-2.638l.97-.97a1.87,1.87,0,0,1,2.634,0l3.522,3.522c.007.006.016.008.022.014a1.468,1.468,0,0,0,.432.287c.036.016.07.028.107.041a1.489,1.489,0,0,0,.5.1h0a1.487,1.487,0,0,0,.5-.1c.049-.018.093-.042.141-.065a1.5,1.5,0,0,0,.173-.08,17.121,17.121,0,0,1,5.765-2.391c.022,0,.041-.015.062-.02a1.6,1.6,0,0,0,.219-.071c.037-.016.069-.038.1-.057a1.448,1.448,0,0,0,.149-.083c.038-.026.07-.058.105-.087s.08-.063.116-.1.056-.068.084-.1.069-.079.1-.123.041-.076.062-.115a1.421,1.421,0,0,0,.072-.14,1.456,1.456,0,0,0,.046-.146c.013-.044.03-.086.039-.131a1.686,1.686,0,0,0,.021-.214c0-.026.008-.052.008-.079V5.534a1.87,1.87,0,0,1,1.867-1.867h1.359a1.87,1.87,0,0,1,1.867,1.867v4.978c0,.027.006.053.008.079a1.686,1.686,0,0,0,.021.214c.009.045.026.087.039.131a1.456,1.456,0,0,0,.046.146,1.421,1.421,0,0,0,.072.14c.021.039.039.079.062.115s.065.082.1.123.053.07.084.1.077.066.116.1.067.061.1.087a1.448,1.448,0,0,0,.149.083c.036.019.068.041.1.057a1.6,1.6,0,0,0,.219.071c.021.005.04.015.062.02a17.121,17.121,0,0,1,5.765,2.391,1.436,1.436,0,0,0,.174.08,1.478,1.478,0,0,0,.14.065,1.5,1.5,0,0,0,.5.1h0a1.489,1.489,0,0,0,.5-.1c.037-.013.072-.025.108-.041a1.463,1.463,0,0,0,.431-.287c.007-.006.016-.008.022-.014L44.1,10.655a1.869,1.869,0,0,1,2.636,0l.971.97a1.872,1.872,0,0,1,0,2.634L44.2,17.767l-.006.007,0,0,0,0a1.483,1.483,0,0,0-.322.486c0,.009-.006.019-.009.028a1.49,1.49,0,0,0-.1.536c0,.009,0,.018,0,.027a1.463,1.463,0,0,0,.1.538l.011.022a1.574,1.574,0,0,0,.122.238,17.118,17.118,0,0,1,2.392,5.764l0,.008a1.493,1.493,0,0,0,.177.439c.01.016.017.034.028.05a1.483,1.483,0,0,0,.29.327c.022.018.042.036.065.053a1.465,1.465,0,0,0,.375.209c.025.009.049.015.074.023a1.514,1.514,0,0,0,.443.077h4.989a1.869,1.869,0,0,1,1.867,1.867v1.358A1.869,1.869,0,0,1,52.826,31.7H47.849a1.247,1.247,0,0,0-.164.017,1.18,1.18,0,0,0-.121.012,1.49,1.49,0,0,0-.233.068c-.014.006-.029.008-.042.013a1.472,1.472,0,0,0-.223.116.347.347,0,0,0-.033.018,1.328,1.328,0,0,0-.177.14.517.517,0,0,0-.051.042,1.51,1.51,0,0,0-.128.148c-.02.025-.043.048-.062.075a1.61,1.61,0,0,0-.092.162c-.016.032-.036.061-.051.094a1.553,1.553,0,0,0-.069.216c-.006.022-.016.042-.021.066-.115.537-.257,1.065-.422,1.585a12.487,12.487,0,0,1,2.494,1.892c.2-.547.394-1.1.551-1.664h3.821a4.872,4.872,0,0,0,4.867-4.867V28.473a4.872,4.872,0,0,0-4.867-4.867H49.005a20.027,20.027,0,0,0-1.878-4.526l2.708-2.708a4.879,4.879,0,0,0,0-6.873L48.86,8.53a4.875,4.875,0,0,0-6.875,0l-2.7,2.7a20.043,20.043,0,0,0-4.526-1.877V5.534A4.873,4.873,0,0,0,29.888.667H28.529a4.873,4.873,0,0,0-4.867,4.867V9.356a20,20,0,0,0-4.526,1.877L16.428,8.526a4.876,4.876,0,0,0-6.872,0l-.97.97a4.878,4.878,0,0,0,0,6.876l2.7,2.7a20.027,20.027,0,0,0-1.878,4.526H5.59A4.872,4.872,0,0,0,.724,28.473v1.358A4.872,4.872,0,0,0,5.59,34.7H9.412a20.035,20.035,0,0,0,1.878,4.527L8.582,41.932a4.877,4.877,0,0,0,0,6.872l.97.97a4.877,4.877,0,0,0,6.876,0l2.7-2.7a19.968,19.968,0,0,0,4.261,1.8A10.486,10.486,0,0,1,25.948,46.521Z"/><path d="M41.634,32.9A12.983,12.983,0,1,0,27.458,42c.115-.413.249-.823.406-1.228a12.69,12.69,0,0,1,.807-1.667,10,10,0,1,1,9.823-6.315A12.466,12.466,0,0,1,41.634,32.9Z"/><text x="0" y="79" fill="#000000" font-size="5px" font-weight="bold" font-family="'Helvetica Neue', Helvetica, Arial-Unicode, Arial, Sans-serif">Created by Fariha Begum</text><text x="0" y="84" fill="#000000" font-size="5px" font-weight="bold" font-family="'Helvetica Neue', Helvetica, Arial-Unicode, Arial, Sans-serif">from the Noun Project</text></svg>